<svg width="50" height="50" viewBox="0 0 50 50" fill="none" xmlns="http://www.w3.org/2000/svg">
<path d="M0 24.9997C0 35.2365 6.15584 44.0308 14.9646 47.8973C14.8943 46.1517 14.9521 44.056 15.3997 42.1567C15.8804 40.1272 18.6165 28.5344 18.6165 28.5344C18.6165 28.5344 17.8179 26.9381 17.8179 24.579C17.8179 20.8742 19.9652 18.1073 22.6394 18.1073C24.9134 18.1073 26.012 19.8153 26.012 21.8605C26.012 24.1464 24.554 27.5657 23.8042 30.7326C23.1778 33.3844 25.1339 35.5475 27.7501 35.5475C32.4868 35.5475 35.677 29.4638 35.677 22.2558C35.677 16.7767 31.9866 12.6756 25.2743 12.6756C17.6908 12.6756 12.9664 18.3309 12.9664 24.648C12.9664 26.826 13.6085 28.3619 14.6144 29.5513C15.0769 30.0976 15.1412 30.3173 14.9738 30.9447C14.8538 31.4046 14.5785 32.512 14.4644 32.9509C14.298 33.584 13.7849 33.8104 13.2126 33.5766C9.71969 32.1507 8.09294 28.3256 8.09294 24.0257C8.09294 16.9241 14.0824 8.40875 25.9604 8.40875C35.5053 8.40875 41.7875 15.3156 41.7875 22.7297C41.7875 32.5366 36.3352 39.8632 28.2981 39.8632C25.5991 39.8632 23.0603 38.4042 22.1905 36.747C22.1905 36.747 20.7392 42.507 20.4318 43.6193C19.9017 45.5468 18.8642 47.4733 17.9156 48.9748C20.2159 49.655 22.6021 50.0002 25.0009 50C38.8063 50 50 38.8071 50 24.9997C50 11.1929 38.8063 0 25.0009 0C11.1941 0 0 11.1929 0 24.9997Z" fill="#CB1F27"/>
</svg>
